HIERARCHY
ROOT Hips
{
  OFFSET -187.679 86.5976 -156.378
  CHANNELS 6 Xposition Yposition Zposition Zrotation Xrotation Yrotation
  JOINT LeftUpLeg
  {
    OFFSET 8.64259 1.95398 -2.38835
    CHANNELS 3 Zrotation Xrotation Yrotation
    JOINT LeftLeg
    {
      OFFSET 43.7702 0 0
      CHANNELS 3 Zrotation Xrotation Yrotation
      JOINT LeftFoot
      {
        OFFSET 40.6238 0 0
        CHANNELS 3 Zrotation Xrotation Yrotation
        JOINT LeftToeBase
        {
          OFFSET 12.7242 0 0
          CHANNELS 3 Zrotation Xrotation Yrotation
          End Site
          {
            OFFSET 0 0 0
          }
        }
      }
    }
  }
  JOINT RightUpLeg
  {
    OFFSET -8.2249 1.95398 -2.59336
    CHANNELS 3 Zrotation Xrotation Yrotation
    JOINT RightLeg
    {
      OFFSET 43.5653 0 0
      CHANNELS 3 Zrotation Xrotation Yrotation
      JOINT RightFoot
      {
        OFFSET 40.6238 0 0
        CHANNELS 3 Zrotation Xrotation Yrotation
        JOINT RightToeBase
        {
          OFFSET 12.7242 0 0
          CHANNELS 3 Zrotation Xrotation Yrotation
          End Site
          {
            OFFSET 0 0 0
          }
        }
      }
    }
  }
  JOINT Spine
  {
    OFFSET 0.165834 0.87714 6.61349
    CHANNELS 3 Zrotation Xrotation Yrotation
    JOINT Spine1
    {
      OFFSET 7.38963 1.71661e-005 0
      CHANNELS 3 Zrotation Xrotation Yrotation
      JOINT Spine2
      {
        OFFSET 11.9445 1.14441e-005 0
        CHANNELS 3 Zrotation Xrotation Yrotation
        JOINT Spine3
        {
          OFFSET 14.7254 4.19617e-005 0
          CHANNELS 3 Zrotation Xrotation Yrotation
          JOINT Spine4
          {
            OFFSET 10.9679 0 0
            CHANNELS 3 Zrotation Xrotation Yrotation
            JOINT RightShoulder
            {
              OFFSET 2.46616 -1.6653 3.69651
              CHANNELS 3 Zrotation Xrotation Yrotation
              JOINT RightArm
              {
                OFFSET 13.0012 0 0
                CHANNELS 3 Zrotation Xrotation Yrotation
                JOINT RightForeArm
                {
                  OFFSET 28.7848 1.52588e-005 0
                  CHANNELS 3 Zrotation Xrotation Yrotation
                  JOINT RightHand
                  {
                    OFFSET 26.5688 1.52588e-005 0
                    CHANNELS 3 Zrotation Xrotation Yrotation
                    End Site
                    {
                      OFFSET 0 0 0
                    }
                  }
                }
              }
            }
            JOINT LeftShoulder
            {
              OFFSET 2.38034 -1.29275 -3.7523
              CHANNELS 3 Zrotation Xrotation Yrotation
              JOINT LeftArm
              {
                OFFSET 16.3182 6.10352e-005 0
                CHANNELS 3 Zrotation Xrotation Yrotation
                JOINT LeftForeArm
                {
                  OFFSET 27.0901 0 0
                  CHANNELS 3 Zrotation Xrotation Yrotation
                  JOINT LeftHand
                  {
                    OFFSET 24.5451 1.52588e-005 0
                    CHANNELS 3 Zrotation Xrotation Yrotation
                    End Site
                    {
                      OFFSET 0 0 0
                    }
                  }
                }
              }
            }
            JOINT Neck
            {
              OFFSET 5.0226 -0.0266342 0
              CHANNELS 3 Zrotation Xrotation Yrotation
              JOINT Head
              {
                OFFSET 6.69363 2.86102e-005 0
                CHANNELS 3 Zrotation Xrotation Yrotation
                End Site
                {
                  OFFSET 0 0 0
                }
              }
            }
          }
        }
      }
    }
  }
}
MOTION
Frames:	9
Frame Time:	0.0416667
32.5609 69.0436 11.5147 -8.23684 -69.9923 -8.97255 -89.0839 76.0138 48.4654 -97.3266 41.8885 -9.35639 85.4461 13.2603 0.0379582 0.738363 -7.9567 -6.1003 88.0926 59.5751 141.465 -105.75 -7.03927 4.71305 91.691 -11.9471 -1.74688 25.1132 -4.28244 11.3674 0.58554 10.3706 -90.4343 6.13548 0.986722 -0.885725 -5.53542 0.946783 -0.928299 -28.0725 1.20729 -0.548217 -8.05982 1.20729 -0.548212 85.8905 -40.2451 -110.17 -21.283 -16.4194 -81.0507 4.77432 -42.5084 5.91627e-005 -16.9512 -2.16853 9.9723 -92.1926 -29.5196 69.1863 24.2983 14.201 -84.9833 0.945455 22.037 -1.04784 -0.72312 0.110989 9.42092 11.4222 0.989071 -3.67144 2.3594 2.08569 5.64397 
33.0532 63.8345 10.7664 -9.97944 -71.1888 -10.5616 -61.1172 75.9256 21.0932 -110.031 40.8535 -2.71141 87.142 14.1196 0.131789 -0.0503426 -8.06819 -6.42298 75.5959 57.8799 153.091 -114.59 -4.54065 0.328181 93.8278 -12.8073 -2.23812 25.2749 -4.23235 11.348 0.59072 10.7228 -90.4213 5.43108 1.00525 -0.850378 -6.2398 0.966853 -0.893804 -28.7771 1.21434 -0.508931 -8.76444 1.21435 -0.508927 86.3279 -39.4359 -109.733 -21.4498 -15.2138 -81.6619 4.3441 -42.7326 5.93761e-005 -17.4185 -2.32322 10.5561 -92.7908 -30.2117 68.3494 25.0446 12.9518 -84.0085 0.878022 23.0128 -1.00233 1.45261 0.41257 10.7386 11.1991 0.934941 -2.98318 3.0593 1.8484 4.65633 
33.635 58.7155 10.2302 -12.7423 -73.1919 -13.6403 -43.2478 73.5466 3.73027 -121.214 38.6352 2.58941 88.798 15.0512 0.0257364 -0.0739206 -8.31498 -6.05465 66.4921 55.6327 161.494 -122.444 -0.46987 -3.46488 97.0911 -13.745 -2.13648 25.2363 -4.25049 11.3712 0.591711 11.0258 -90.3027 4.82455 1.05808 -0.609141 -6.84612 1.03025 -0.655111 -29.3844 1.19222 -0.262932 -9.37178 1.19223 -0.262942 85.7257 -39.496 -110.737 -20.9242 -14.6972 -80.9316 3.99856 -42.3078 5.89738e-005 -18.6078 -2.17307 8.59306 -92.7196 -30.025 68.4048 25.3618 13.1217 -83.2564 0.859321 22.8053 -0.607955 -0.280106 0.16322 9.43569 10.2918 1.02735 -3.14594 3.22371 1.95425 4.55347 
34.2367 53.6398 9.86324 -16.8194 -75.5241 -17.7462 -31.7687 70.6686 -6.96392 -130.785 35.0929 6.47906 91.339 15.735 -1.56932 1.19261 -8.10234 -5.59153 62.5367 52.8461 165.34 -128.613 5.21248 -6.10107 104.026 -15.3351 -0.504938 25.0687 -4.22747 11.1671 0.647027 11.3081 -90.2771 4.25989 1.18047 -0.551086 -7.41064 1.15507 -0.602522 -29.95 1.29151 -0.170779 -9.9373 1.29151 -0.170796 85.8071 -39.4365 -110.621 -22.1764 -15.0456 -80.955 3.99244 -40.7507 5.75712e-005 -17.6071 -1.88986 7.5208 -93.0968 -31.5528 68.3336 25.2985 12.9922 -82.7547 0.749881 22.7689 -0.905137 1.18046 0.352865 9.93131 10.0933 0.838869 -2.41385 3.18325 1.55437 3.70418 
34.657 48.5727 9.60882 -23.1037 -78.1726 -24.0994 -21.7373 67.1042 -16.2097 -139.291 31.8126 9.23644 91.7089 16.0661 -1.11531 -1.53753 -8.15216 -7.19093 59.1194 49.7294 169.163 -133.963 12.2333 -8.11752 110.011 -16.2263 1.05819 24.8505 -4.0923 10.5916 0.71288 11.5639 -90.2098 3.7478 1.34016 -0.411067 -7.92253 1.32078 -0.469652 -30.4633 1.40173 0.0107913 -10.4506 1.40174 0.0107908 85.4818 -40.2359 -110.864 -23.6624 -15.6193 -81.3472 4.53553 -41.5981 5.83207e-005 -18.037 -2.20211 9.24841 -93.0247 -31.4754 68.4331 25.1822 13.9562 -82.8034 0.792687 23.451 -1.11376 1.79601 0.444855 10.3728 10.0662 0.687848 -3.17816 3.14376 1.59973 4.12742 
34.7096 44.1324 9.13597 -31.5599 -81.0008 -32.5456 -13.7413 64.1667 -24.9776 -145.456 26.9683 10.4381 92.3892 15.5316 -2.09417 -0.458655 -8.82576 -5.49136 56.807 45.5629 173.553 -137.994 21.8442 -9.78401 112.874 -15.8704 1.15012 24.9912 -3.82073 9.88693 0.748407 11.7959 -90.1847 3.28356 1.42174 -0.353004 -8.38665 1.40483 -0.415237 -30.9281 1.4621 0.0907031 -10.9154 1.46209 0.0907106 85.4134 -40.0163 -111.065 -22.579 -15.9645 -80.9726 4.17045 -42.8769 5.95147e-005 -20.9091 -2.8331 10.6648 -92.941 -31.3499 68.5356 23.5286 15.0749 -83.2176 0.825615 25.0565 -0.289942 5.18026 0.93222 11.1606 9.71266 0.506538 -3.40137 3.33331 1.45342 3.80517 
34.6415 40.4423 8.95415 -45.3611 -84.1728 -46.2488 -9.16659 61.705 -31.5163 -149.953 23.517 10.9382 90.457 14.2513 -1.26497 2.47349 -9.10313 -3.14041 56.4131 42.407 176.326 -140.674 30.8476 -10.987 114.264 -14.87 0.625915 25.5305 -3.42226 9.08827 0.75904 12.1061 -90.2244 2.66354 1.42817 -0.418474 -9.00671 1.40836 -0.480956 -31.5482 1.48789 0.0301695 -11.5355 1.4879 0.0301842 86.1292 -38.6709 -110.366 -18.9708 -16.0558 -81.0966 3.69063 -45.632 6.23705e-005 -21.8347 -3.38236 12.8725 -92.701 -31.3186 68.9633 22.6425 16.0109 -84.164 0.945998 24.0843 0.00159829 7.35099 1.42909 13.4928 9.38005 0.221709 -3.10127 4.29411 1.11916 3.59049 
34.5768 38.3993 9.00523 -75.0205 -86.0868 -76.3193 -7.18195 61.4074 -34.4043 -152.199 21.872 10.9104 89.2125 13.343 -0.684528 3.89833 -8.97256 -2.30144 56.8127 41.9314 177.581 -142.639 35.1057 -11.4051 113.895 -14.2174 -0.646728 26.0506 -3.14402 8.62028 0.816346 12.4667 -90.2314 1.94235 1.54071 -0.415322 -9.72778 1.52094 -0.482746 -32.2703 1.59428 0.0670377 -12.2576 1.59429 0.0670491 87.235 -37.7129 -108.808 -17.9538 -16.5535 -82.1638 2.87048 -41.0954 5.78722e-005 -22.915 -3.71292 13.6325 -92.666 -31.1587 68.9641 22.7986 16.6949 -85.2751 1.00536 22.9358 -0.122566 5.85798 1.03131 11.2612 9.66289 0.00786449 -2.43572 6.40838 0.807291 3.20428 
34.5068 38.106 8.76641 -86.0489 -86.3899 -87.5006 -8.10219 61.3541 -34.16 -152.161 21.1852 10.8003 90.1832 14.4077 0.522875 -2.40273 -9.17609 -6.20001 56.7156 42.2865 178.612 -142.65 36.1959 -11.4346 112.883 -13.7465 -0.795488 26.2953 -3.00098 8.35274 0.793289 12.717 -90.1658 1.44072 1.52026 -0.277779 -10.2294 1.50656 -0.344438 -32.7716 1.53344 0.192074 -12.759 1.53344 0.192075 87.906 -36.863 -107.936 -16.8966 -15.3006 -83.658 2.4872 -41.8224 5.85246e-005 -22.8868 -3.68583 13.4755 -92.5731 -31.334 69.2046 22.4253 16.0833 -85.8239 1.01857 22.7572 0.0106218 5.64514 1.075 12.0278 12.3027 -0.0882175 -2.60158 7.36494 0.827533 3.12076 
